<?xml version="1.0" standalone="no"?>
<!DOCTYPE svg PUBLIC "-//W3C//DTD SVG 1.1//EN" "http://www.w3.org/Graphics/SVG/1.1/DTD/svg11.dtd" >
<svg xmlns="http://www.w3.org/2000/svg" xmlns:xlink="http://www.w3.org/1999/xlink" version="1.1" viewBox="-10 0 273 256">
  <g transform="matrix(1 0 0 -1 0 204)">
   <path fill="currentColor"
d="M201 183q13 0 16 -2v-1q3 -1 2 -2q-1 -3 -3 -3l-1 1q-7 0 -14 -3q-8 -3 -26 -7q11 -10 10 -11q-2 -5 -2 -9q9 1 23 4q1 0 2 1q1 2 4 2q7 -2 15 -3q2 -4 -2 -5q-11 1 -24 -2q-5 -1 -1 1q3 1 0 2q-3 -2 -17 -4q-2 -7 -1 -22q5 1 7 5q1 1 4 1h11q2 0 3 -1v-2q0 -3 -5 -2
q-7 -2 -20 -7q-1 -14 1 -19q2 0 8 1q22 5 28 6q1 4 5 3q14 -1 27 -8q2 -2 1 -4q-1 -3 -3 -2q-20 9 -31 7q-15 -2 -35 -7v-45q1 -26 2 -42q0 -10 11 -24q1 -2 0 -4q-3 -3 -5 0q-5 3 -9 13q-2 2 -4 6q-2 2 -4 5q-2 0 -1 1q0 1 1 2q2 4 5 1q1 -3 2 4q-1 43 -2 83q-7 -2 -13 -4
q-8 -2 -25 -7q-1 -1 -2 -1q-10 -4 -17 -1q-1 0 1 1h3q3 1 8 3q2 0 5 1q32 10 40 11q0 2 -1 10v9q-9 -1 -18 2q-2 0 0 1q9 0 17 3v22q-4 -1 -10 -3q-3 -1 -8 -2q-5 -3 -12 1q-2 0 1 1q4 0 10 1q1 0 2 1l16 4q0 14 -4 21q-14 -1 -21 5q-2 1 1 1q17 -3 45 9q2 3 4 3zM129 173
q4 0 9 -2q2 -1 1 -3t-4 -1q-9 -2 -23 -7q-10 -5 -27 0q-2 0 1 1q14 0 33 8q0 2 3 2q1 0 3 1q2 0 4 1zM107 152q4 -2 10 -7q1 -1 1 -7v-7q10 4 16 3q5 0 4 -3q0 -3 -3 -2q-2 -1 -3 -1q-8 0 -14 -4q-2 -5 -1 -20q18 4 18 6q0 1 3 1q1 -2 6 -1q3 0 7 -1q1 -4 -2 -4q-7 0 -13 -1
q-7 -1 -19 -4q1 -55 -30 -73q-3 -1 0 2q26 22 26 70q-6 -2 -14 -5q-9 -4 -16 -6q-8 -4 -17 -2q-3 0 0 2q4 -1 16 4q7 2 12 4q12 5 19 7q0 13 -1 19q-16 -6 -23 -1q-3 1 0 1q11 -1 23 7q0 13 -6 22q-1 2 1 1zM73 170q3 -5 0 -7q-7 -2 -11 1q-3 1 -4 0q-3 -2 -4 -1l1 3
q1 2 -8 7q-2 1 -2 2t3 2q14 -3 25 -7zM42 107h2q6 2 11 1q4 -1 4 -4q-5 -4 -9 -4q-1 -1 -2 -1q-2 -1 -2 -2q-3 -6 -2 0q1 3 -2 3q-15 -2 -25 2q-5 1 0 2q12 -2 25 3zM70 70h1q-16 -52 -14 -77q-3 -5 -8 2q0 5 -3 9v2q-4 7 -3 14q0 4 2 -1v-2q0 -4 4 -7q1 -4 2 1q5 26 17 60
q4 7 2 -1z" />
  </g>

</svg>
