<?xml version="1.0" encoding="UTF-8" standalone="no"?>
<!-- Created with Inkscape (http://www.inkscape.org/) -->

<svg
   xmlns:dc="http://purl.org/dc/elements/1.1/"
   xmlns:cc="http://creativecommons.org/ns#"
   xmlns:rdf="http://www.w3.org/1999/02/22-rdf-syntax-ns#"
   xmlns:svg="http://www.w3.org/2000/svg"
   xmlns="http://www.w3.org/2000/svg"
   xmlns:sodipodi="http://sodipodi.sourceforge.net/DTD/sodipodi-0.dtd"
   xmlns:inkscape="http://www.inkscape.org/namespaces/inkscape"
   id="svg2"
   version="1.1"
   inkscape:version="0.47 r22583"
   width="620"
   height="700"
   sodipodi:docname="32e4re2.png">
  <metadata
     id="metadata8">
    <rdf:RDF>
      <cc:Work
         rdf:about="">
        <dc:format>image/svg+xml</dc:format>
        <dc:type
           rdf:resource="http://purl.org/dc/dcmitype/StillImage" />
        <dc:title></dc:title>
      </cc:Work>
    </rdf:RDF>
  </metadata>
  <defs
     id="defs6">
    <inkscape:perspective
       sodipodi:type="inkscape:persp3d"
       inkscape:vp_x="0 : 0.5 : 1"
       inkscape:vp_y="0 : 1000 : 0"
       inkscape:vp_z="1 : 0.5 : 1"
       inkscape:persp3d-origin="0.5 : 0.33333333 : 1"
       id="perspective10" />
  </defs>
  <sodipodi:namedview
     pagecolor="#ffffff"
     bordercolor="#666666"
     borderopacity="1"
     objecttolerance="10"
     gridtolerance="10"
     guidetolerance="10"
     inkscape:pageopacity="0"
     inkscape:pageshadow="2"
     inkscape:window-width="855"
     inkscape:window-height="844"
     id="namedview4"
     showgrid="false"
     inkscape:zoom="0.61378413"
     inkscape:cx="419.4967"
     inkscape:cy="409.60169"
     inkscape:window-x="236"
     inkscape:window-y="121"
     inkscape:window-maximized="0"
     inkscape:current-layer="svg2" />
  <path
     style="fill:#000000"
     d="m 483.82821,679.83165 c -4.56198,-4.35139 -7.41736,-6.09625 -13.6241,-8.32535 -8.93261,-3.20808 -11.85582,-6.11886 -11.85582,-11.80542 0,-6.01471 6.73596,-10.09104 12.81821,-7.75706 2.50621,0.96172 1.89352,4.32399 -0.98755,5.41937 -4.3284,1.64566 -2.89487,5.06211 3.04779,7.26363 6.23683,2.31049 6.41771,2.46654 12.85579,11.0904 6.94711,9.30572 7.11517,9.61961 5.15054,9.61961 -0.89829,0 -4.23048,-2.47733 -7.40486,-5.50518 z M 116.74829,661.83683 c 0,-2.85018 1.48059,-4.40644 8.41952,-8.84978 9.59687,-6.14536 11.12006,-11.74848 6.02148,-22.15022 -2.73635,-5.58248 -2.941,-6.80024 -2.941,-17.5 0,-13.8599 1.77171,-18.31382 9.14504,-22.98985 8.98349,-5.69716 17.92552,-5.78071 25.26878,-0.23611 l 3.41382,2.57764 3.3213,-3.92584 c 1.82672,-2.15921 3.328,-4.49948 3.33618,-5.20059 0.0202,-1.73266 -3.9125,-3.11395 -13.834,-4.85893 -4.59189,-0.80761 -10.78641,-2.38038 -13.7656,-3.49504 -5.90869,-2.21072 -11.72908,-6.50637 -10.8165,-7.98295 0.31591,-0.51116 3.81533,-2.46734 7.77649,-4.34708 3.96117,-1.87973 9.80509,-5.69549 12.98649,-8.47947 5.64137,-4.93663 5.94042,-5.06178 12.09537,-5.06178 5.58811,0 7.40715,0.56147 15.88095,4.90182 5.26348,2.696 11.39735,5.21056 13.63082,5.5879 4.31342,0.72874 4.91301,1.55638 2.67245,3.68885 -2.58245,2.45787 -5.80082,4.96649 -5.95665,4.64304 -1.32231,-2.7447 -2.63776,-4.37871 -4.22177,-5.24413 -1.06324,-0.5809 -3.92282,-2.29848 -6.35461,-3.81683 -2.4318,-1.51836 -5.8068,-2.75897 -7.5,-2.75691 -7.6456,0.009 -13.91347,8.78379 -10.25882,14.3615 2.03179,3.1009 10.97552,7.37371 18.44568,8.8123 3.15402,0.6074 6.10502,1.43387 6.55778,1.83661 0.45276,0.40274 -0.68955,1.66718 -2.53846,2.80987 -4.73847,2.92854 -15.95195,14.8227 -19.02134,20.17598 -1.41908,2.475 -3.11258,7.2 -3.76335,10.5 -1.34543,6.82262 -3.31874,10.5 -5.63439,10.5 -1.32175,0 -1.44373,-0.62921 -0.72695,-3.75 1.57555,-6.85984 1.00091,-16.46886 -1.21233,-20.27235 -2.85695,-4.9097 -6.74073,-5.15348 -12.4279,-0.78008 -7.14022,5.49077 -8.29881,8.60759 -7.361,19.80243 0.43771,5.225 0.81084,13.40156 0.82918,18.17013 0.0381,9.91006 -0.77463,11.32113 -9.96666,17.30389 -2.75,1.78987 -6.09094,4.44044 -7.42431,5.89015 -3.02996,3.29431 -4.07569,3.32916 -4.07569,0.13583 z m 341,-21.8185 c 0,-0.17517 0.69539,-2.66015 1.54532,-5.52216 2.51219,-8.45947 1.1164,-8.96857 -8.66198,-3.15934 -3.70315,2.2 -7.13348,4 -7.62296,4 -0.48947,0 -1.6201,-1.53113 -2.5125,-3.40252 -0.8924,-1.87138 -3.45075,-4.8717 -5.68522,-6.66736 -7.16168,-5.75529 -5.64872,-6.11293 9.80134,-2.31686 10.67352,2.62248 14.28624,2.59712 21.386,-0.15009 2.4081,-0.9318 2.34317,2.50523 -0.10677,5.65197 -1.02122,1.31167 -2.79592,4.52236 -3.94377,7.13486 -1.14785,2.6125 -2.5623,4.75 -3.14323,4.75 -0.58093,0 -1.05623,-0.14332 -1.05623,-0.3185 z m -315,-20.63445 c 0,-4.73637 5.12958,-10.32107 7.90465,-8.60598 1.77482,1.0969 1.30338,2.32291 -2.52101,6.55605 -4.01454,4.44361 -5.38364,4.96492 -5.38364,2.04993 z m 302.61802,-7.43284 c -0.32934,-1.31218 -1.72034,-3.44968 -3.09113,-4.75 -2.93908,-2.78799 -3.08679,-4.42441 -0.89403,-9.90466 1.28966,-3.22316 1.39524,-4.60246 0.50234,-6.56215 -1.09651,-2.40659 -1.34867,-2.46159 -8.38286,-1.8286 -6.64104,0.59762 -16.80589,-0.84858 -15.45554,-2.19893 0.27427,-0.27428 3.42437,-0.60437 7.00022,-0.73354 5.06429,-0.18294 7.93152,-0.96068 12.9702,-3.51818 6.9061,-3.50535 16.73278,-12.07697 16.73278,-14.59568 0,-1.90196 0.83905,-1.90549 5.34576,-0.0225 1.9745,0.825 4.72946,1.5 6.12212,1.5 1.39267,0 2.53212,0.35631 2.53212,0.79179 0,0.43549 -2.06542,2.79799 -4.58982,5.25 -9.22568,8.96114 -13.06343,16.71954 -15.52912,31.39368 -1.31543,7.82856 -2.23262,9.28424 -3.26304,5.17874 z M 343.94236,584.30866 c -1.62835,-0.99026 -3.57566,-2.63106 -4.32736,-3.64622 -0.75169,-1.01515 -2.84819,-3.06563 -4.6589,-4.55661 l -3.29219,-2.71088 -7.35004,3.6369 c -6.62028,3.2758 -7.64094,3.51641 -10.27992,2.4233 -3.29807,-1.3661 -11.15285,-11.11832 -8.95509,-11.11832 0.75314,0 3.23297,1.35 5.51073,3 4.94638,3.58314 7.65967,3.71727 15.84186,0.78312 5.96766,-2.14001 6.29876,-2.15685 9.5,-0.48323 1.82426,0.95374 5.18058,3.12742 7.45849,4.8304 3.88944,2.90777 4.36548,3.02246 7.81701,1.88335 2.02144,-0.66713 3.85827,-1.03004 4.08185,-0.80646 0.83635,0.83634 -4.51286,7.55233 -6.41061,8.0486 -1.08635,0.28409 -3.30748,-0.29369 -4.93583,-1.28395 z m -74.88571,-6.72183 c 0.23451,-0.4125 1.18228,-2.37415 2.10615,-4.35923 1.65258,-3.55079 1.79638,-3.61902 8.88263,-4.21423 3.96157,-0.33275 8.21536,-0.89859 9.45286,-1.2574 3.2344,-0.93784 2.80682,1.16726 -0.5,2.46161 -1.5125,0.59202 -3.875,1.98484 -5.25,3.09516 -1.375,1.11031 -5.10946,2.69495 -8.29879,3.52142 -6.6726,1.72911 -6.96773,1.76385 -6.39285,0.75267 z m -15.65337,-5.07874 c -0.91025,-1.00581 -1.65499,-2.05581 -1.65499,-2.33333 0,-0.27753 2.7,-0.5046 6,-0.5046 6.45594,0 7.26574,0.6667 3.77749,3.10997 -2.95854,2.07224 -6.09605,1.96716 -8.1225,-0.27204 z m 166.48774,-3.54004 c -4.33559,-3.98584 -7.16684,-5.70887 -10.99131,-6.68905 -2.83328,-0.72615 -5.14286,-1.5727 -5.1324,-1.88122 0.0105,-0.30852 3.02999,-3.26095 6.71005,-6.56095 3.68007,-3.3 8.93536,-8.1375 11.67842,-10.75 2.74306,-2.6125 5.35711,-4.75 5.809,-4.75 2.02787,0 -1.87365,10.26698 -5.56495,14.64436 -1.45835,1.72939 -2.65154,3.57718 -2.65154,4.10619 0,0.52902 1.50615,2.93906 3.34699,5.35565 3.39288,4.45404 5.7008,11.8938 3.68964,11.8938 -0.5797,0 -3.68196,-2.41595 -6.8939,-5.36878 z m -52.75523,-8.73328 c -2.13812,-1.70614 -6.5875,-4.49229 -9.8875,-6.19145 l -6,-3.08938 3.5,-0.6234 c 3.76134,-0.66996 6.13617,-1.78916 11.45431,-5.39814 2.62104,-1.77869 5.40011,-2.4486 12.32704,-2.97152 19.92134,-1.50386 32.14971,-7.0378 51.44178,-23.27997 8.74223,-7.36017 11.59263,-8.90579 10.31651,-5.59408 -1.88815,4.89998 -3.5117,14.53489 -3.52486,20.91821 -0.0158,7.64391 -0.67081,10.66241 -2.11956,9.76703 -0.49237,-0.3043 -0.89522,-4.52162 -0.89522,-9.37181 0,-12.66208 -0.9415,-13.04276 -10.16298,-4.10921 -4.07009,3.94301 -7.8925,6.85473 -8.62811,6.57245 -1.80235,-0.69162 -7.03301,1.60897 -12.24913,5.3875 -2.3827,1.72602 -6.83589,3.85776 -9.89598,4.7372 -10.28756,2.95654 -14.86269,6.12683 -18.18144,12.59863 -1.05766,2.0625 -2.30198,3.75 -2.76518,3.75 -0.46319,0 -2.59155,-1.39593 -4.72968,-3.10206 z m -48.3875,-0.80487 c 0,-1.356 5.31646,-4.09307 7.95034,-4.09307 2.92426,0 2.53265,1.5722 -0.70034,2.81163 -5.12352,1.96421 -7.25,2.34007 -7.25,1.28144 z m -75.06621,-0.98131 c -1.41141,-0.46227 -4.41564,-1.90489 -6.67607,-3.20582 l -4.10987,-2.36534 -5.32392,2.30388 c -2.92816,1.26713 -5.88643,2.54364 -6.57393,2.83669 -0.71407,0.30437 -1.25,-0.18414 -1.25,-1.1394 0,-2.32792 9.78947,-11.88356 14.78553,-14.43236 5.59416,-2.85392 7.82009,-2.66286 12.02885,1.03247 5.99,5.2593 16.0918,8.81406 35.68562,12.55755 3.06496,0.58558 0.84424,0.90902 -9.5,1.38365 -7.425,0.34068 -16.425,0.90061 -20,1.24429 -3.575,0.34368 -7.65479,0.24665 -9.06621,-0.21561 z m 94.06621,-0.95413 c 0,-1.55521 2.75512,-3.36288 3.43898,-2.25636 0.33937,0.54911 -0.29557,1.48679 -1.41097,2.08374 -1.11541,0.59695 -2.02801,0.67462 -2.02801,0.17262 z m -133,-7.95763 c 0,-0.44 0.5625,-1.37194 1.25,-2.07098 1.00287,-1.01971 0.78327,-1.65236 -1.11078,-3.2 -1.93705,-1.58278 -3.95208,-1.92902 -11.22645,-1.92902 l -8.86566,0 -5.27355,-5.04928 c -5.18739,-4.96677 -5.29807,-5.01522 -6.77356,-2.9648 -3.92154,5.44957 -4.87622,6.4659 -5.49494,5.84973 -0.36691,-0.3654 -0.13402,-1.66043 0.51752,-2.87785 0.65155,-1.21742 1.57331,-4.51846 2.04837,-7.33565 2.78629,-16.52337 2.35883,-15.97816 6.98096,-8.90419 6.39082,9.78086 12.75259,15.90843 17.94809,17.28737 8.00048,2.1234 12.4389,3.9414 15.37391,6.29722 2.70175,2.1686 2.77235,2.40834 1.17857,4.00212 -1.71254,1.71253 -6.55248,2.37387 -6.55248,0.89533 z m 1.46591,-15.58806 c -2.76876,-0.61157 -7.56288,-2.44239 -10.6536,-4.06849 -4.62877,-2.43531 -5.81484,-3.60853 -6.72746,-6.65459 -0.60938,-2.03392 -2.67776,-5.98012 -4.5964,-8.76934 -3.05906,-4.44708 -4.42885,-8.11952 -3.02852,-8.11952 0.25296,0 2.61546,2.32073 5.25,5.15718 4.29063,4.61946 17.0592,15.6788 24.86587,21.53726 3.23171,2.42522 2.39566,2.57533 -5.10989,0.9175 z M 603.38308,523.3278 c -9.71986,-4.85172 -13.85393,-9.77927 -14.62505,-17.43213 -0.48487,-4.81203 -0.72743,-5.16861 -4.97163,-7.30884 -7.6458,-3.85555 -14.46113,-2.81752 -24.84394,3.78394 -2.18165,1.3871 -2.49328,1.25064 -5.7864,-2.53394 -1.91431,-2.2 -5.78043,-6.35138 -8.59138,-9.22529 l -5.11081,-5.2253 2.67117,-3.2747 c 1.46915,-1.80109 3.6729,-4.73164 4.89722,-6.51233 1.22431,-1.78069 2.56353,-3.24319 2.97603,-3.25 0.4125,-0.007 0.75168,2.80012 0.75374,6.23762 0.006,9.64866 4.05209,14.75 11.69953,14.75 1.60833,0 4.18631,-1.48703 6.87579,-3.96611 5.28729,-4.87365 8.53768,-5.84264 11.9965,-3.57634 3.81174,2.49755 10.13454,13.12361 10.91813,18.34893 0.3734,2.49002 1.3819,5.60021 2.24111,6.91153 1.77883,2.71483 6.22049,5.28199 9.13881,5.28199 2.2028,0 7.62662,4.19766 9.18412,7.10786 0.89928,1.68033 0.64488,1.88768 -2.27255,1.85229 -1.80685,-0.0219 -5.02452,-0.90804 -7.15039,-1.96918 z m -75.13479,-14.64143 c -4.01494,-3.7264 -5.54509,-5.73931 -4.625,-6.08417 0.75625,-0.28345 2.22378,-1.36415 3.26118,-2.40155 1.84824,-1.84824 1.83496,-1.98725 -0.66004,-6.9109 -5.20266,-10.26697 -11.23495,-14.96733 -21.97725,-17.12469 -4.55056,-0.91388 -5.46743,-1.42448 -4.89567,-2.72635 5.2049,-11.85138 6.95178,-27.32711 3.85886,-34.18597 -1.78291,-3.95378 -1.7759,-4.16381 0.35982,-10.79502 1.19795,-3.71953 2.1781,-8.05836 2.1781,-9.64184 0,-5.08915 1.71171,-1.34623 4.03116,8.81475 2.50299,10.96504 2.35932,20.11663 -0.39957,25.45173 -2.38043,4.60324 -2.09803,11.26438 0.65105,15.35659 1.90215,2.83148 2.98373,3.44904 6.48852,3.70482 5.12791,0.37422 8.73284,-2.64611 9.77244,-8.18768 1.13063,-6.02673 -1.66431,-9.27399 -5.77344,-6.70779 -2.39869,1.498 -2.85911,1.14469 -2.13195,-1.63599 0.34725,-1.32789 2.13092,-2.76042 4.71034,-3.78305 2.2833,-0.90522 6.32325,-3.46704 8.97766,-5.69293 3.5104,-2.94368 5.12616,-3.74713 5.92637,-2.94692 0.80022,0.80022 0.6603,1.5862 -0.51318,2.88288 -0.88733,0.9805 -2.63974,5.37863 -3.89423,9.77363 -3.24643,11.37357 -3.17163,29.32118 0.15833,37.99091 2.42707,6.31902 3.41135,19.5534 1.4965,20.12161 -0.55,0.1632 -3.7,-2.20923 -7,-5.27207 z M 31.748288,500.83683 c 0,-1.00339 0.65585,-1.52034 1.67889,-1.32332 2.22992,0.42944 2.27795,2.20795 0.0711,2.63295 -1.0946,0.2108 -1.75,-0.27967 -1.75,-1.30963 z m 251.500002,-0.0178 c -55.8538,-9.02946 -99.23085,-47.29582 -117.30282,-103.4822 -8.49934,-26.42476 -10.8777,-49.98546 -7.66523,-75.93389 4.89983,-39.57787 17.65808,-68.14851 40.92841,-91.65453 29.30579,-29.6026 68.65992,-43.04004 117.78964,-40.21919 42.77078,2.45574 87.42346,21.51667 117.3577,50.09661 13.23403,12.63527 21.73283,23.98963 29.34966,39.211 6.4559,12.90138 10.26017,24.63951 11.97022,36.93433 2.06293,14.83187 0.86645,22.7475 -1.82357,12.06443 -1.67719,-6.66072 -9.5939,-25.73509 -14.73357,-35.49876 -17.99138,-34.17769 -49.95398,-61.80499 -85.95485,-74.29622 -20.78692,-7.21245 -40.72089,-10.3414 -59.83023,-9.3913 -62.42296,3.1036 -109.82689,37.66787 -126.43263,92.18752 -6.457,21.19949 -7.32699,35.0698 -3.57522,57 9.1173,53.29334 33.41027,89.89522 71.68893,108.01272 26.03301,12.32156 58.35485,13.90763 87.23356,4.28066 31.8887,-10.63039 58.5686,-32.89767 72.30404,-60.34562 9.45234,-18.88887 12.67266,-32.70768 12.57193,-53.94776 -0.0629,-13.26218 -0.38285,-16.04269 -2.76173,-24 -12.81466,-42.86485 -49.36572,-70.81812 -95.69731,-73.18674 -36.06738,-1.84387 -66.98581,13.94118 -80.67313,41.18674 -4.31434,8.58798 -6.91803,17.75672 -8.31451,29.27902 -1.13229,9.34245 -1.0601,10.72808 1.03586,19.88166 7.06861,30.87051 27.07862,52.37183 54.91322,59.00582 27.06623,6.45085 54.67272,-5.68673 65.61105,-28.84681 7.53373,-15.9514 7.81066,-23.37774 1.2645,-33.90898 -2.78437,-4.47941 -3.24226,-6.11331 -3.1731,-11.32276 0.14639,-11.0262 4.24768,-15.62397 12.15971,-13.6317 10.58816,2.66613 16.44569,8.06688 19.84319,18.2958 2.12565,6.39974 1.46235,20.43003 -1.52457,32.24795 -6.56205,25.96313 -26.16102,47.0766 -51.65088,55.64216 -12.05903,4.05229 -20.90784,5.19378 -35.40827,4.56763 -24.20939,-1.04539 -44.56003,-9.97233 -60.05277,-26.34253 -15.26528,-16.12985 -21.99741,-32.87659 -24.18484,-60.16183 -2.75018,-34.30477 6.20184,-60.40333 27.87745,-81.27351 9.61251,-9.25532 14.81058,-12.85309 26.68195,-18.46751 28.21197,-13.34252 62.05131,-15.10489 93.17821,-4.85278 24.34708,8.01908 46.16794,24.07637 61.0693,44.93901 8.80017,12.32067 17.6614,33.1435 20.50661,48.18809 1.85847,9.82695 0.62772,43.27408 -2.05183,55.76127 -6.17546,28.77878 -18.41809,52.15098 -37.51237,71.61428 -19.92989,20.31503 -44.08086,33.17599 -74.01171,39.41296 -11.19796,2.33343 -39.22658,2.85823 -51,0.95492 z m -122.5,-0.4822 c 0,-0.55 0.45,-1 1,-1 0.55,0 1,0.45 1,1 0,0.55 -0.45,1 -1,1 -0.55,0 -1,-0.45 -1,-1 z m 314.80054,-4.53279 c -0.31595,-0.31595 -5.01282,-1.1506 -10.4375,-1.85478 l -9.86304,-1.28033 3.5,-1.53717 c 4.87142,-2.13949 7.32882,-5.11475 11.83148,-14.32478 2.69343,-5.50932 5.40508,-9.31837 8.78251,-12.33678 11.42267,-10.20843 13.21263,-12.22075 16.46511,-18.51051 1.88149,-3.6385 3.80654,-6.61713 4.27789,-6.61916 0.47134,-0.002 0.53653,0.7838 0.14486,1.7463 -0.39166,0.9625 -1.74386,4.73123 -3.00488,8.37497 -3.108,8.98057 -4.19912,10.85995 -8.42775,14.51623 -5.35561,4.63071 -8.87882,11.84515 -10.11099,20.70416 -0.58168,4.18206 -0.92273,8.35602 -0.75791,9.27545 0.30043,1.6759 -1.32198,2.9242 -2.39978,1.8464 z m 121.19946,-6.07301 c -2.475,-1.97252 -5.73959,-4.23079 -7.25465,-5.01838 -2.59986,-1.35152 -2.66963,-1.56176 -1.24155,-3.74127 1.37114,-2.09264 1.34813,-2.45433 -0.24535,-3.8554 -0.96715,-0.85037 -3.75905,-2.55265 -6.20424,-3.78284 l -4.44578,-2.23672 -3.15548,3.44322 c -1.73552,1.89377 -3.61316,4.26105 -4.17254,5.26061 -1.28803,2.30159 -3.28041,1.14762 -3.28041,-1.89999 0,-1.2752 -0.675,-2.87874 -1.5,-3.56343 -4.16519,-3.4568 -0.25614,-6 9.22237,-6 10.59395,0 14.34714,2.3599 22.02763,13.85036 8.25006,12.34257 8.30374,13.96247 0.25,7.54384 z M 24.748288,489.12598 c -3.35807,-2.26369 -3.51207,-2.63526 -3.79771,-9.16276 -0.30854,-7.05091 1.02581,-8.41731 2.34675,-2.40312 0.3866,1.76018 1.81026,4.87365 3.16368,6.91881 1.35343,2.04517 2.30924,4.45828 2.12403,5.36246 -0.29294,1.43009 -0.7921,1.33702 -3.83675,-0.71539 z m 14.21718,-5.04737 c -1.16159,-2.61702 -3.97463,-6.9672 -6.25119,-9.66707 -4.0762,-4.83413 -5.89523,-9.61994 -5.94213,-15.63358 -0.0131,-1.68238 -0.6674,-3.93238 -1.45394,-5 -1.38829,-1.88442 -1.52708,-1.84968 -4.75,1.18888 -4.05994,3.82769 -7.50614,5.68195 -8.92749,4.80351 -0.65685,-0.40596 0.0805,-1.86355 1.92043,-3.79625 3.25594,-3.42012 9.24205,-12.46145 13.18542,-19.9151 1.37406,-2.59719 2.82768,-4.72217 3.23027,-4.72217 0.4026,0 0.67327,5.5125 0.6015,12.25 -0.0718,6.7375 0.21434,13.375 0.6358,14.75 1.07265,3.49952 5.36186,9 7.01809,9 1.99964,0 7.83469,-7.67982 10.25716,-13.5 1.59114,-3.82286 4.2589,-14.58663 4.2589,-17.18366 0,-0.17399 0.41749,-0.31634 0.92775,-0.31634 1.26271,0 0.36831,9.37502 -2.05115,21.5 -1.34969,6.76386 -2.96657,11.59006 -4.99633,14.91346 -1.65048,2.7024 -3.57468,7.4274 -4.27599,10.5 l -1.27511,5.58654 -2.11199,-4.75822 z M 141.74829,482.6055 c -1.925,-0.2262 -3.93594,-0.83762 -4.46876,-1.35873 -0.53283,-0.52111 -0.98283,-4.49145 -1,-8.82297 -0.0241,-6.06553 -0.43343,-8.32009 -1.78124,-9.80998 -2.33876,-2.58529 -2.20683,-3.27699 0.625,-3.27699 4.33427,0 8.48998,1.20576 9.03302,2.6209 0.29473,0.76806 0.0686,2.62538 -0.50242,4.12738 -2.161,5.68387 1.61746,13.25172 6.61629,13.25172 2.83217,0 3.7192,1.00458 2.34699,2.65799 -1.0843,1.3065 -3.69757,1.45333 -10.86888,0.61068 z m 401.5353,-16.42347 c -0.37192,-0.91015 -0.51119,-3.16015 -0.30949,-5 l 0.36672,-3.3452 1.26068,2.96486 c 0.85235,2.00457 0.95259,3.62403 0.30949,5 -0.83669,1.79019 -1.03257,1.83597 -1.6274,0.38034 z M 62.748288,464.23119 c 0,-0.60811 1.125,-2.44263 2.5,-4.07673 1.375,-1.63409 2.5,-3.85068 2.5,-4.92574 0,-2.00044 2.55022,-3.675 3.75776,-2.46746 0.36932,0.36932 0.11924,1.43741 -0.55574,2.37353 -0.67498,0.93612 -2.10557,3.61454 -3.17909,5.95204 -1.76608,3.84549 -5.02293,5.88428 -5.02293,3.14436 z m 71.654992,-17.7231 c -2.00615,-2.21677 -2.09945,-3.17126 -0.30998,-3.17126 1.35043,0 4.65499,3.07296 4.65499,4.32874 0,1.35015 -2.735,0.62157 -4.34501,-1.15748 z m -34.654992,-1.17126 c -1.29269,-0.8354 -1.26629,-0.97149 0.19098,-0.98469 0.930042,-0.008 1.969102,0.43469 2.309022,0.98469 0.78218,1.2656 -0.54163,1.2656 -2.500002,0 z m -26.42432,-3.80241 c 1.14162,-0.95472 2.88088,-2.96475 3.86501,-4.46673 2.09268,-3.19383 4.07962,-3.49569 5.50302,-0.83604 0.55774,1.04215 2.48607,2.44761 4.28518,3.12326 l 3.27111,1.22845 -3.92853,0.8982 c -2.54311,0.58145 -4.28876,0.53798 -4.95,-0.12326 -1.48222,-1.48222 -4.18515,-1.25213 -5.62147,0.47853 -0.68469,0.825 -1.97729,1.48503 -2.87244,1.46673 -1.33885,-0.0274 -1.25936,-0.34119 0.44812,-1.76914 z m 38.481642,0.37148 c -0.65317,-0.78702 -1.39099,-4.04952 -1.63959,-7.25 l -0.45202,-5.81907 1.36986,4.77877 c 0.75343,2.62833 2.41458,5.89083 3.69146,7.25 2.25883,2.40442 2.26612,2.47123 0.26973,2.47123 -1.12853,0 -2.58628,-0.64392 -3.23944,-1.43093 z m 15.24721,-5.06832 c -3.18223,-2.22893 -5.94716,-7.33584 -7.19195,-13.28378 -0.6081,-2.90567 -2.00996,-7.05566 -3.11525,-9.2222 -2.56829,-5.03426 -7.78652,-10.99477 -9.62555,-10.99477 -0.78157,0 -2.64745,2.08742 -4.1464,4.63871 -4.046062,6.88657 -7.169672,10.36129 -9.314272,10.36129 -1.56544,0 -1.91111,-0.72917 -1.91111,-4.03138 0,-4.01238 -0.58231,-4.69406 -4.67191,-5.46913 -1.00545,-0.19056 -1.96418,-0.3809 -2.1305,-0.42298 -0.16633,-0.0421 2.58006,-2.88901 6.10309,-6.32651 5.0443,-4.92183 6.99804,-7.73755 9.193782,-13.25 1.53355,-3.85 4.13683,-9.925 5.78508,-13.5 l 2.99681,-6.5 1.21127,8 c 1.39034,9.18264 3.35861,16.45311 7.71554,28.5 3.01266,8.32997 4.46637,11.50652 10.70463,23.39092 4.50523,8.58284 3.8444,11.92552 -1.60326,8.10983 z m -64.691992,-3.6906 c 0.55887,-4.07736 0.37606,-4.74589 -1.58475,-5.79528 -1.86872,-1.0001 -2.56483,-0.85898 -4.43659,0.89945 -2.70814,2.54417 -3.59534,2.62741 -3.57782,0.33568 0.009,-1.21193 1.62346,-2.299 5.25,-3.53557 9.40661,-3.20745 9.12428,-3.1507 8.19513,-1.64729 -0.46983,0.7602 -1.18442,3.8153 -1.58798,6.78912 -0.40355,2.97382 -1.21883,5.89204 -1.81173,6.48494 -0.77066,0.77066 -0.89789,-0.23604 -0.44626,-3.53105 z m 43.887452,-11.81015 c -0.33992,-0.55 0.0835,-1 0.94098,-1 0.85746,0 1.55902,0.45 1.55902,1 0,0.55 -0.42344,1 -0.94098,1 -0.51754,0 -1.2191,-0.45 -1.55902,-1 z M 508.5759,395.98592 c -0.45408,-3.88956 0.61979,-4.96555 1.66599,-1.66927 0.3456,1.0889 0.20799,2.73099 -0.30581,3.64909 -0.74068,1.32354 -1.0224,0.91348 -1.36018,-1.97982 z m 12.15503,-95.34007 c -0.015,-7.61506 -1.54063,-18.1903 -3.52712,-24.44917 -0.43717,-1.3774 -0.0864,-1.85985 1.35209,-1.85985 1.37938,0 2.12527,0.91441 2.57333,3.15469 1.19807,5.99038 2.26385,6.15764 8.23673,1.29267 5.00312,-4.0751 7.38233,-5.32959 7.38233,-3.89249 0,0.30518 -1.82915,3.24841 -4.06478,6.54052 -5.60987,8.2609 -8.71982,15.33247 -9.50433,21.61142 -1.06387,8.51493 -2.42938,7.17756 -2.44825,-2.39779 z M 125.33384,280.07558 c -1.13483,-3.9584 -1.88252,-19.27275 -1.1722,-24.00949 0.62937,-4.19695 0.91724,-4.57624 3.34748,-4.41055 2.38708,0.16276 2.92723,-0.4832 5.28378,-6.31871 1.44369,-3.575 3.32651,-6.6363 4.18404,-6.80289 1.6276,-0.31619 1.23854,2.94302 -2.18487,18.30289 -1.60882,7.21829 -7.161,24.45441 -8.05545,25.00721 -0.41852,0.25866 -1.04977,-0.53714 -1.40278,-1.76846 z m 391.41445,-19.23875 c -0.68469,-0.825 -2.30442,-1.5 -3.59939,-1.5 -2.95462,0 -6.46808,-4.72223 -4.44414,-5.9731 0.71408,-0.44133 2.97613,-0.57737 5.02678,-0.30232 2.05064,0.27505 4.73185,-0.0369 5.95824,-0.69327 1.22639,-0.65634 2.3762,-1.04439 2.55513,-0.86233 0.51605,0.52508 -2.92724,10.80279 -3.62418,10.81764 -0.34515,0.007 -1.18775,-0.66162 -1.87244,-1.48662 z m 5.33805,-24.06145 c -0.83399,-2.17333 2.52216,-4.97834 4.08573,-3.41477 0.70836,0.70836 0.70282,1.55197 -0.0177,2.69422 -1.51316,2.39886 -3.30239,2.71578 -4.06803,0.72055 z m -22.75378,-0.93855 c -5.82115,-15.99106 -5.69002,-15.77042 -14.71515,-24.75966 -6.31773,-6.29262 -9.13188,-9.88531 -9.99209,-12.75645 -0.65861,-2.19823 -0.89861,-4.29564 -0.53334,-4.66091 1.10469,-1.10469 21.19227,3.54544 29.69836,6.87497 6.72603,2.63276 8.35946,2.94014 10.48282,1.97267 3.49437,-1.59214 4.93232,-5.6798 2.97904,-8.4685 -3.96979,-5.66767 0.0213,-11.71214 10.34083,-15.66121 11.64883,-4.45775 15.74242,-10.22803 16.74217,-23.59957 0.79339,-10.61156 1.88516,-13.77063 6.01106,-17.39322 4.75002,-4.17056 12.68155,-8.04812 16.46242,-8.04812 l 3.12688,0 -6.53018,7.0532 c -8.00623,8.64746 -10.65709,13.82188 -10.65709,20.80236 0,5.71128 -2.31869,11.28522 -6.15268,14.79053 -1.29103,1.18034 -5.83926,3.79045 -10.10718,5.80023 -10.47451,4.93249 -11.19676,6.1944 -10.40903,18.18652 0.93144,14.17986 -2.01172,19.36716 -10.98852,19.36716 -5.86057,0 -8.17581,-1.08082 -14.87731,-6.94515 -6.75664,-5.91259 -9.87875,-7.08447 -12.29992,-4.61678 -1.55886,1.58882 -1.20668,2.12471 5.507,8.37965 6.38808,5.95159 7.23424,7.17434 7.73829,11.18228 0.70572,5.61157 -0.73772,15.49064 -1.82638,12.5 z m 18.91573,-8.9977 c 1.1,-0.78875 2.5921,-1.94483 3.31579,-2.56907 2.11472,-1.82415 2.67923,-0.1377 0.68976,2.06064 -0.99854,1.10337 -2.75828,1.99182 -3.91054,1.97433 -2.08277,-0.0316 -2.08333,-0.0402 -0.095,-1.4659 z m -403.24746,-2.5023 c -0.53889,-1.375 -0.76207,-6.14819 -0.49595,-10.60709 0.43379,-7.26861 0.20117,-8.73694 -2.24921,-14.19712 -1.50319,-3.34953 -3.51776,-6.80019 -4.47684,-7.66815 -1.59046,-1.43934 -1.8663,-1.43173 -3.13717,0.0864 -0.76636,0.91549 -1.84502,3.73935 -2.39704,6.27523 -0.79287,3.64227 -1.47549,4.67781 -3.250002,4.93024 -3.03951,0.43239 -2.94349,-2.05506 0.35766,-9.26572 1.432192,-3.12833 2.669692,-7.45516 2.750002,-9.61519 0.0803,-2.16003 0.31428,-3.92987 0.51994,-3.93298 0.20566,-0.003 2.10782,1.96415 4.22703,4.3717 6.88517,7.82196 9.6051,6.8382 12.90836,-4.66878 2.72343,-9.48714 3.25602,-10.68204 6.45657,-14.48568 3.85339,-4.57948 6.18689,-4.27364 3.01826,0.3956 -4.06785,5.99431 -4.80165,10.00894 -5.00502,27.38256 -0.18815,16.07399 -0.26781,16.64339 -3.07808,22 -1.58672,3.02442 -3.39879,6.84894 -4.02683,8.49894 l -1.14189,3 -0.97979,-2.5 z m 19.56916,-11.25 c 0.38765,-7.26087 3.35997,-17.96671 5.15633,-18.57236 0.52588,-0.1773 2.47389,-1.35234 4.32892,-2.6112 l 3.37279,-2.28883 -0.42627,5.11119 c -0.6116,7.33344 -3.07881,13.46316 -7.44704,18.50199 -2.09354,2.41493 -3.80643,5.00243 -3.80643,5.75 0,0.74757 -0.35221,1.35921 -0.78269,1.35921 -0.43048,0 -0.6085,-3.2625 -0.39561,-7.25 z m 15.29482,1 c 3.16103,-6.22778 7.06868,-11.67701 14.86173,-20.72474 9.20621,-10.68842 11.37317,-18.9902 7.12955,-27.31382 -2.31929,-4.54915 -1.99477,-4.59082 8.91421,-1.14467 7.5125,2.37319 8.30471,2.44918 10.50489,1.00756 2.68741,-1.76086 4.0936,-7.10611 2.9828,-11.33829 -0.39497,-1.50482 -0.78373,-4.53604 -0.86391,-6.73604 l -0.14579,-4 4.72814,0.0615 c 2.60047,0.0338 4.97583,0.30917 5.27857,0.61191 0.30274,0.30273 0.88686,2.52118 1.29806,4.92987 0.45429,2.66111 1.3362,4.4928 2.24768,4.66834 0.82504,0.15888 5.08825,-1.76046 9.47381,-4.2652 4.38555,-2.50475 11.12374,-5.49462 14.97374,-6.64415 7.49291,-2.23724 12.5,-5.17201 12.5,-7.32654 0,-0.73047 -1.61631,-4.73161 -3.59181,-8.89144 l -3.5918,-7.56333 1.98189,-5.79046 c 1.09004,-3.18476 2.27846,-7.59967 2.64092,-9.81093 1.42042,-8.665345 2.5517,-6.925525 1.96399,3.02046 -0.69954,11.83851 1.05293,18.82855 6.94656,27.70768 4.18481,6.30467 4.30366,6.89102 1.84735,9.11395 -1.32208,1.19647 -3.66059,1.61421 -8.76855,1.56639 -7.6928,-0.072 -16.98733,2.54581 -23.3907,6.58808 -2.0926,1.32101 -6.89468,5.18161 -10.67129,8.57913 -10.12587,9.10946 -14.98286,12.04115 -18.02966,10.88276 -3.02675,-1.15077 -7.3909,-1.19027 -9.13699,-0.0827 -1.43498,0.91022 -1.64701,3.26276 -0.65703,7.29007 1.30157,5.29489 -2.14777,9.99733 -17.82931,24.30649 -5.38253,4.91148 -10.70673,10.41905 -11.83156,12.23906 -2.95895,4.78769 -4.30818,4.06863 -1.76549,-0.94091 z m -63.366522,-9.33267 c -0.4125,-0.41287 -0.75036,-1.91316 -0.75079,-3.334 -9.2e-4,-3.02355 -4.76597,-13.46597 -9.02321,-19.774 -1.6368,-2.42528 -2.976,-4.82291 -2.976,-5.32808 0,-1.51622 3.29187,0.11271 6.70902,3.31985 4.07165,3.82141 6.04608,2.5694 6.51422,-4.13077 l 0.32632,-4.67033 1.25065,2.88198 c 1.17175,2.70017 1.3644,2.77903 3.05396,1.25 0.99182,-0.89759 2.10538,-1.63198 2.47457,-1.63198 1.19478,0 0.69876,6.42368 -0.70353,9.11108 -0.74935,1.4361 -1.67133,5.4861 -2.04883,9 -0.72518,6.75026 -3.56211,14.57163 -4.82638,13.30625 z m 415.337752,-13.8116 c -1.21455,-1.46344 -0.47431,-4.60573 1.08498,-4.60573 1.88287,0 4.87278,2.11734 4.29958,3.0448 -1.28686,2.08218 -4.24119,2.93861 -5.38456,1.56093 z m -43.65918,-8.15886 c 0,-3.17394 -0.65651,-6.1458 -1.71428,-7.76017 -2.20894,-3.37126 -2.21929,-3.3357 1.16905,-4.01337 1.58583,-0.31716 3.96223,-0.84745 5.28089,-1.17841 l 2.39755,-0.60175 -0.91409,8.95946 c -0.88257,8.65054 -1.00555,8.97289 -3.5666,9.34878 -2.5767,0.37818 -2.65252,0.24228 -2.65252,-4.75454 z m 55.86674,-4.19687 c -0.43742,-2.0625 -0.78759,-7.8 -0.77815,-12.75 0.0138,-7.24234 0.4336,-9.78374 2.14947,-13.01311 3.83701,-7.22143 10.4066,-12.28732 18.08337,-13.94431 3.06641,-0.66186 3.24991,-0.54166 3.24845,2.12796 -0.002,4.49826 -3.10937,9.58882 -6.49845,10.64751 -4.30097,1.34356 -9.24732,5.29264 -11.0883,8.85271 -0.94252,1.82262 -1.81332,6.87416 -2.14587,12.4483 -0.58953,9.88127 -1.64483,11.88171 -2.97052,5.63094 z M 157.354,171.50788 c -0.84877,-1.37335 1.07771,-6.17105 2.47795,-6.17105 0.73415,0 0.89401,0.96832 0.45399,2.75 -0.8179,3.31172 -2.08544,4.79071 -2.93194,3.42105 z m 264.13459,-5.55933 c 0.66212,-5.87437 -1.16462,-10.26267 -5.12454,-12.31042 -2.84991,-1.47375 -2.94022,-1.66774 -1.10914,-2.38255 4.8291,-1.88518 7.75215,-1.0277 11.98264,3.51515 3.54704,3.80892 5.10145,4.65941 11.02772,6.03381 7.59161,1.76061 9.70423,1.5213 18.64614,-2.11212 3.33433,-1.35486 6.29943,-2.22638 6.5891,-1.9367 0.88303,0.88303 -4.78512,7.63014 -8.11805,9.66334 -4.40977,2.69011 -8.88033,3.31982 -12.99803,1.83084 -3.47558,-1.25679 -5.76011,-1.04787 -18.77403,1.71682 -2.60123,0.55261 -2.63071,0.49678 -2.12181,-4.01817 z M 69.337178,163.2601 c -3.05634,-3.63225 -3.25647,-4.92327 -0.7632,-4.92327 2.2441,0 6.17431,4.01941 6.17431,6.31445 0,2.64247 -2.57382,1.98075 -5.41111,-1.39118 z m 14.87785,-3.14934 c -0.31918,-0.83178 -0.44227,-3.92947 -0.27354,-6.88376 0.24795,-4.34106 0.67048,-5.44065 2.20271,-5.73223 1.52859,-0.29089 1.73019,-0.002 1.04054,1.49064 -0.47045,1.01828 -0.93119,4.009 -1.02387,6.64605 -0.17918,5.09838 -0.99108,6.96737 -1.94584,4.4793 z M 394.74829,131.01829 c 0,-11.02752 0.28335,-13.67173 1.58041,-14.7482 0.92173,-0.76496 1.39631,-2.27473 1.13867,-3.62244 -0.42683,-2.23282 -0.21014,-2.31082 6.41959,-2.31082 3.77373,0 6.86133,0.36581 6.86133,0.81291 0,0.4471 -1.39112,2.1346 -3.09138,3.75 -1.70025,1.6154 -3.96181,4.14778 -5.02567,5.62752 -1.97728,2.7502 -5.88295,16.30069 -5.88295,20.41052 0,1.25456 -0.45,2.55913 -1,2.89905 -0.64772,0.40031 -1,-4.11547 -1,-12.81854 z m -175.59976,5.29728 c 1.99813,-2.21169 4.36111,-5.84107 5.25107,-8.06529 2.09248,-5.22962 3.93399,-3.8008 2.40754,1.868 -1.13868,4.22875 -6.83039,10.21855 -9.71001,10.21855 -1.10199,0 -0.47996,-1.21935 2.0514,-4.02126 z m 360.18341,-2.57296 c 0.39729,-2.1177 0.14407,-5.20076 -0.61638,-7.50496 -0.70987,-2.15092 -1.1054,-4.08422 -0.87897,-4.29624 1.05384,-0.98675 11.12616,0.79072 11.60886,2.04861 1.2816,3.3398 -5.33988,13.34681 -8.83137,13.34681 -1.70407,0 -1.86945,-0.46359 -1.28214,-3.59422 z m -306.08365,1.36317 c -10.11425,-2.47372 -11.09592,-4.17246 -2.59352,-4.488 4.70752,-0.17471 6.44502,0.2077 8.5823,1.88888 2.06087,1.62109 2.37164,2.30329 1.34551,2.95374 -1.54395,0.9787 -1.96626,0.95828 -7.33429,-0.35462 z m 58,-1.82367 c -4.37067,-2.06824 -12.06866,-2.50297 -17.37472,-0.98121 -2.49322,0.71505 -4.26661,0.58589 -6.86552,-0.5 -1.9272,-0.80524 -4.77249,-1.46407 -6.32287,-1.46407 -4.61592,0 -4.11938,-1.42643 1.38469,-3.97782 4.94842,-2.29382 8.27529,-2.77292 22.98564,-3.31011 4.87064,-0.17787 6.12102,-0.61527 7.75297,-2.71207 1.07017,-1.375 2.2232,-3.5324 2.5623,-4.79423 0.42683,-1.58833 2.50281,-3.16013 6.74702,-5.10842 3.37177,-1.5478 7.22143,-4.0029 8.5548,-5.45577 2.30724,-2.51401 5.07569,-3.53074 5.07569,-1.86409 0,1.09362 -2.58112,4.70197 -8.66344,12.11132 -4.12364,5.02332 -5.62233,7.85525 -7.01205,13.25 -1.96122,7.61324 -2.39446,7.84921 -8.82451,4.80647 z m 46.63023,-4.74448 c 3.50337,-3.73955 6.51619,-6.45028 6.69516,-6.02383 0.67701,1.61324 -5.3562,11.07435 -7.60787,11.93043 -5.46072,2.07616 -5.24243,0.6635 0.91271,-5.9066 z m -170.84599,-1.55109 c -7.44663,-3.25048 -10.13739,-5.1299 -8.98884,-6.27844 0.36413,-0.36414 3.14172,0.0433 6.17242,0.9055 6.53085,1.85786 7.44472,1.08074 4.78343,-4.06765 -1.05452,-2.04001 -3.09417,-5.97814 -4.53257,-8.75139 -3.2574,-6.28034 -4.65825,-12.216745 -4.70955,-19.957725 -0.0535,-8.067768 -0.94567,-9.374018 -4.65573,-6.816308 -1.56937,1.08191 -4.32413,2.55369 -6.1217,3.27061 -1.79756,0.716928 -5.96971,3.713928 -9.27145,6.660008 -5.94079,5.30087 -11.96415,9.160595 -11.95606,7.661368 0.002,-0.42662 1.1273,-2.989448 2.5,-5.695158 3.38115,-6.66455 3.34987,-13.473958 -0.0936,-20.384178 -1.42419,-2.85799 -2.99919,-5.19634 -3.5,-5.19634 -2.20162,0 -0.58366,-1.84366 3.05981,-3.48663 2.1837,-0.98472 4.72844,-2.62806 5.65499,-3.65188 2.32447,-2.56851 3.5302,-2.32944 2.80592,0.55634 -1.03778,4.13482 5.5065,5.86661 11.81873,3.12756 4.01246,-1.74111 1.22261,1.30813 -5.76634,6.30247 -4.11601,2.94133 -7.48366,5.9485 -7.48366,6.68262 0,1.75135 3.41151,2.78849 6.25,1.90006 4.27391,-1.33769 14.26289,-6.23366 18.13221,-8.88727 l 3.88222,-2.66244 -0.62561,2.30958 c -3.61811,13.3571 -2.64798,21.841528 4.38747,38.371343 5.86941,13.79021 8.14585,21.59499 6.22371,21.33795 -0.4125,-0.0552 -3.99709,-1.51767 -7.96576,-3.25 z m 62.17464,-8.71624 c -0.36253,-0.58659 -0.41903,-1.30665 -0.12555,-1.60014 0.71632,-0.71631 2.66667,0.54583 2.66667,1.72569 0,1.27797 -1.72641,1.19267 -2.54112,-0.12555 z m 13.54112,0.53099 c 0,-0.29454 1.95675,-1.37429 4.34832,-2.39944 2.39158,-1.02515 5.20408,-2.92785 6.25,-4.22821 4.02478,-5.00389 7.44384,-6.83681 12.75311,-6.83681 2.79494,0 6.96062,0.71757 9.25708,1.59459 3.95201,1.50929 4.42433,1.48447 8.82871,-0.4638 5.38573,-2.38236 6.23181,-1.64097 5.22284,4.57659 -0.91179,5.61871 -1.77361,5.96395 -9.75515,3.90786 -8.30597,-2.13967 -13.80563,-1.64538 -21.77575,1.95713 -4.80702,2.17278 -15.12916,3.4637 -15.12916,1.89209 z m 95.09344,-7.95136 c -0.41704,-0.5572 -1.35908,-2.5881 -2.09344,-4.5131 -0.73436,-1.925 -1.7739,-4.07337 -2.3101,-4.77417 -0.5362,-0.70079 -0.73189,-1.51717 -0.43489,-1.814177 0.58806,-0.58805 12.45617,5.266947 17.17246,8.471837 l 2.92747,1.98932 -2.42747,0.52386 c -4.82587,1.04145 -12.09238,1.10737 -12.83403,0.11643 z m 12.14252,-13.577165 c 1.50477,-0.4155 4.31614,-1.73206 6.24748,-2.9257 2.51948,-1.55712 4.34027,-1.98822 6.44495,-1.52596 3.03261,0.66607 5.81429,3.10638 4.75192,4.16875 -0.33258,0.33258 -5.0092,0.70227 -10.3925,0.82152 -5.76769,0.12778 -8.66408,-0.0934 -7.05185,-0.53861 z m 21.6177,-6.68778 c -2.567,-5.17155 -4.40623,-6.397108 -13.15105,-8.763058 -3.18857,-0.86268 -6.06217,-2.25853 -6.3858,-3.10187 -0.963,-2.50956 1.65695,-9.51082 4.69649,-12.55036 2.29407,-2.29408 3.71278,-2.83286 7.45944,-2.83286 5.20052,0 11.33396,2.5933 9.78854,4.13872 -0.6247,0.6247 -2.28211,0.34212 -4.66878,-0.796 -3.79321,-1.80886 -6.45644,-1.2509 -7.38945,1.54813 -0.61483,1.8445 8.04271,9.70512 12.20027,11.07724 2.84278,0.9382 3.59668,1.70677 3.59668,3.66664 0,3.262418 -2.0354,11.269118 -3.01933,11.877218 -0.42534,0.26287 -1.8325,-1.65584 -3.12701,-4.2638 z m -51.85366,-3.18913 c 0,-1.13246 0.45,-2.059018 1,-2.059018 0.55,0 1,0.648438 1,1.440978 0,0.79254 -0.45,1.7191 -1,2.05902 -0.55,0.33992 -1,-0.30852 -1,-1.44098 z m 67.47854,-2.435208 c 0.36269,-2.13191 1.77862,-7.73826 3.14651,-12.45857 1.36789,-4.7203 2.24167,-9.56014 1.94173,-10.75518 -0.66637,-2.65504 -3.81956,-3.37884 -11.63313,-2.67033 -7.58649,0.68792 -10.19317,-0.0759 -14.96237,-4.384642 -3.47449,-3.138997 -4.18743,-3.420718 -5.62969,-2.224621 -0.90827,0.753243 -2.27091,2.851613 -3.02809,4.663044 -2.24134,5.361999 -6.30552,5.929329 -4.26374,0.595179 0.8565,-2.237591 1.67047,-10.72398 1.94051,-20.231359 0.005,-0.188468 2.37223,1.795511 5.25973,4.408843 7.88152,7.133172 16.22763,12.173492 22.47145,13.570798 5.70715,1.277203 5.69687,1.278389 25.06325,-2.891465 2.13598,-0.459907 2.20732,-0.322092 1.09587,2.11726 -0.65385,1.435053 -2.28205,3.325503 -3.61822,4.200993 -2.83421,1.85704 -4.74958,6.08366 -5.67651,12.52622 -0.54938,3.81843 -1.6779,5.66747 -6.71357,11 l -6.05317,6.410018 0.65944,-3.876188 z m -269.79089,-24.6541 0.46634,-11.030294 -3.07699,-3.504504 c -2.79683,-3.185411 -4.17755,-7.550255 -2.327,-7.356308 0.4125,0.04323 2.775,1.290012 5.25,2.770623 3.07049,1.836847 5.12712,4.035565 6.47412,6.921397 1.11321,2.38496 2.67113,4.229376 3.57242,4.229376 0.87906,0 4.04071,-1.312999 7.02588,-2.917775 2.98517,-1.604777 8.12758,-3.684101 11.42758,-4.62072 7.3913,-2.097829 7.9747,-2.561018 11.83016,-9.392525 l 3.10235,-5.497064 1.24011,5.964042 c 1.9379,9.319903 1.78367,10.458162 -1.42262,10.499477 -1.5125,0.01949 -3.875,0.678544 -5.25,1.464565 -1.375,0.786021 -4.09915,1.445075 -6.05366,1.464565 -5.90332,0.05887 -13.80661,4.791828 -22.92218,13.727175 -4.66171,4.56954 -8.77441,8.30826 -9.13934,8.30826 -0.36493,0 -0.45366,-4.96363 -0.19717,-11.03029 z M 421.0431,50.265824 c -4.12037,-1.2379 -6.29481,-4.39913 -6.29481,-9.151493 0,-3.607589 2.6369,-7.777494 4.91821,-7.777494 0.50502,0 1.60818,-0.264765 2.45147,-0.588366 1.25413,-0.481254 1.4313,0.03992 0.9732,2.862848 -1.00305,6.181076 3.12223,10.115696 6.26507,5.975518 0.73065,-0.9625 1.35264,-4.225 1.38221,-7.25 0.062,-6.347496 2.71079,-12.976703 6.14642,-15.383112 2.87045,-2.010543 3.83211,-0.344759 1.37096,2.37478 -2.90261,3.207349 -4.41799,9.183584 -4.46365,17.603344 -0.0353,6.513879 -0.39852,8.415949 -1.85951,9.738124 -2.3659,2.14111 -6.87512,2.80193 -10.88957,1.595851 z M 167.78274,39.653501 c -1.87225,-2.380181 -2.09336,-3.87712 -1.95712,-13.25 0.0845,-5.811665 -0.17214,-11.804164 -0.57027,-13.316664 -0.92339,-3.5079573 0.85583,-3.6519793 3.08508,-0.249726 1.26745,1.934385 1.48475,3.728715 0.9601,7.927925 -0.51026,4.083948 -0.27797,6.201505 0.93829,8.55349 0.88904,1.719211 1.88005,5.351645 2.20224,8.072075 0.48237,4.072866 0.30917,4.946236 -0.9809,4.946236 -0.86169,0 -2.51653,-1.207501 -3.67742,-2.683336 z"
     id="path2818" />
</svg>
