<?xml version="1.0" standalone="no"?>
<!DOCTYPE svg PUBLIC "-//W3C//DTD SVG 1.1//EN" "http://www.w3.org/Graphics/SVG/1.1/DTD/svg11.dtd" >
<svg xmlns="http://www.w3.org/2000/svg" xmlns:xlink="http://www.w3.org/1999/xlink" version="1.1" viewBox="-10 0 266 256">
  <g transform="matrix(1 0 0 -1 0 204)">
   <path fill="currentColor"
d="M197 194q1 -2 8 -7q4 -3 6 -4q4 -4 1 -5q-5 -6 -6 -17q-4 -30 0 -99q3 -62 9 -82q-1 -4 -6 -2q-6 8 -14 15l-4 4q-14 10 -21 20q-2 3 2 0q20 -18 31 -21q5 -2 5 4q-5 60 -9 135q-1 14 -1 21t1 13q3 16 -3 23q-3 2 1 2zM130 93q2 5 10 -5q3 -6 -1 -6q-9 -2 -16 -9
q-25 -24 -52 -43q-5 -4 -1 2q33 26 55 52q4 4 -2 2q-7 -3 -17 -10l-6 -4q-7 -6 -16 6q-3 3 2 1q3 -3 13 0q9 4 19 8q2 0 3 1q4 1 9 5zM138 40q8 2 1 -2q-26 -17 -71 -33q-11 -3 -18 2q-3 3 2 5q28 0 86 28zM94 184q-1 2 2 1q4 -2 7 -5q2 -3 -2 -4q-9 -4 -14 -13
q-34 -45 -44 -52q-6 -4 -2 2q15 17 33 41q9 12 17 20q5 5 3 10zM104 122q0 5 20 3q3 -1 3 -3t-3 -2q-20 -4 -39 -15q-7 -4 -25 -1q-6 1 0 2q35 6 44 16zM164 125q11 -4 10 -41q-1 -6 -2 -7q-2 -1 -4 4q-4 5 -6 17q-1 4 1 4q3 -2 3 6q-1 9 -3 16q-1 2 1 1zM125 162q5 -3 9 -4
q7 -3 12 -5q2 -2 2 -5q0 -1 -2 -1q-19 0 -33 -5q-3 -2 -4 -1q0 1 3 4q8 4 14 5q5 3 -3 9q-3 1 -3 2q1 1 5 1zM77 63l-5 -5l-2 -3q-3 -2 -3 -4q-1 -4 -5 -2q-6 4 -6 5q-2 2 -1 6q-1 3 5 7q4 2 2 -1q-4 -4 0 -6q3 -3 12 6q2 2 4 1q1 -1 -1 -4z" />
  </g>

</svg>
